<svg xmlns="http://www.w3.org/2000/svg" width="24" height="24" viewBox="0 0 24 24" fill="none" class="injected-svg" data-src="/assets/burger-24.e4dc6f9a.svg" xmlns:xlink="http://www.w3.org/1999/xlink" role="img">
    <path d="M2.09961 5.99998C2.09961 5.50292 2.50255 5.09998 2.99961 5.09998H20.9996C21.4967 5.09998 21.8996 5.50292 21.8996 5.99998C21.8996 6.49703 21.4967 6.89998 20.9996 6.89998H2.99961C2.50255 6.89998 2.09961 6.49703 2.09961 5.99998Z" fill="currentColor"></path>
    <path d="M2.09961 12C2.09961 11.5029 2.50255 11.1 2.99961 11.1H20.9996C21.4967 11.1 21.8996 11.5029 21.8996 12C21.8996 12.497 21.4967 12.9 20.9996 12.9H2.99961C2.50255 12.9 2.09961 12.497 2.09961 12Z" fill="currentColor"></path>
    <path d="M2.99961 17.1C2.50255 17.1 2.09961 17.5029 2.09961 18C2.09961 18.497 2.50255 18.9 2.99961 18.9H20.9996C21.4967 18.9 21.8996 18.497 21.8996 18C21.8996 17.5029 21.4967 17.1 20.9996 17.1H2.99961Z" fill="currentColor"></path>
</svg>