<svg xmlns="http://www.w3.org/2000/svg" enable-background="new 0 0 100 100" viewBox="0 0 100 100"><switch><g><path d="M5273.1,2400.1v-2c0-2.8-5-4-9.7-4s-9.7,1.3-9.7,4v2c0,1.8,0.7,3.6,2,4.9l5,4.9c0.3,0.3,0.4,0.6,0.4,1v6.4
				c0,0.4,0.2,0.7,0.6,0.8l2.9,0.9c0.5,0.1,1-0.2,1-0.8v-7.2c0-0.4,0.2-0.7,0.4-1l5.1-5C5272.4,2403.7,5273.1,2401.9,5273.1,2400.1z
				 M5263.4,2400c-4.8,0-7.4-1.3-7.5-1.8v0c0.1-0.5,2.7-1.8,7.5-1.8c4.8,0,7.3,1.3,7.5,1.8C5270.7,2398.7,5268.2,2400,5263.4,2400z"/><path d="M5268.4 2410.3c-.6 0-1 .4-1 1 0 .6.4 1 1 1h4.3c.6 0 1-.4 1-1 0-.6-.4-1-1-1H5268.4zM5272.7 2413.7h-4.3c-.6 0-1 .4-1 1 0 .6.4 1 1 1h4.3c.6 0 1-.4 1-1C5273.7 2414.1 5273.3 2413.7 5272.7 2413.7zM5272.7 2417h-4.3c-.6 0-1 .4-1 1 0 .6.4 1 1 1h4.3c.6 0 1-.4 1-1C5273.7 2417.5 5273.3 2417 5272.7 2417zM95.8 41.7l-10.7-3.8c-.7-.2-1.2-.8-1.5-1.5-.1-.3-.2-.6-.3-.8-.3-.7-.3-1.4 0-2.1l4.8-10.2c.5-1 .3-2.1-.5-2.9l-8.2-8.2c-.8-.8-1.9-1-2.9-.5l-10.2 4.8c-.7.3-1.4.3-2.1 0-.3-.1-.6-.2-.9-.4-.7-.3-1.2-.8-1.5-1.5L58.1 4.2c-.4-1-1.3-1.7-2.4-1.7H44.1c-1.1 0-2 .7-2.4 1.7l-3.8 10.6c-.2.7-.8 1.2-1.5 1.5-.3.1-.6.3-.9.4-.7.3-1.4.3-2.1 0l-10.1-4.7c-1-.5-2.1-.3-2.9.5l-8.2 8.2c-.8.8-1 1.9-.5 2.9l4.8 10.2c.3.7.3 1.4 0 2.1-.1.3-.3.6-.4 1-.3.7-.8 1.2-1.5 1.5L4.2 41.9c-1 .4-1.7 1.3-1.7 2.4v11.6c0 1.1.7 2 1.7 2.4l10.6 3.8c.7.2 1.2.8 1.5 1.5.1.3.3.6.4 1 .3.7.3 1.4 0 2.1l-4.7 10.1c-.5 1-.3 2.1.5 2.9l8.2 8.2c.8.8 1.9 1 2.9.5l10.2-4.8c.7-.3 1.4-.3 2.1 0 .3.1.6.3.9.4.7.3 1.2.8 1.5 1.5l3.8 10.5c.4 1 1.3 1.7 2.4 1.7h11.6c1.1 0 2-.7 2.4-1.7l3.8-10.6c.2-.7.8-1.2 1.5-1.5.3-.1.6-.2.9-.4.7-.3 1.4-.3 2.1 0l10.1 4.8c1 .5 2.1.3 2.9-.5l8.2-8.2c.8-.8 1-1.9.5-2.9l-4.8-10.2c-.3-.7-.3-1.4 0-2.1.1-.3.2-.6.3-.8.3-.7.8-1.2 1.5-1.5l10.6-3.8c1-.4 1.7-1.3 1.7-2.4V44.1C97.5 43 96.8 42.1 95.8 41.7zM50 68.9C39.5 68.9 31 60.5 31 50c0-10.5 8.5-18.9 18.9-18.9S68.9 39.5 68.9 50C68.9 60.5 60.4 68.9 50 68.9z"/></g></switch></svg>